<mxfile host="app.diagrams.net" modified="2025-10-08T00:00:00.000Z" agent="Claude Code" etag="1tier-architecture" version="21.0.0" type="device">
  <diagram name="1-Tier Architecture" id="1tier-arch">
    <mxGraphModel dx="1422" dy="794" grid="1" gridSize="10" guides="1" tooltips="1" connect="1" arrows="1" fold="1" page="1" pageScale="1" pageWidth="1100" pageHeight="850" math="0" shadow="0">
      <root>
        <mxCell id="0" />
        <mxCell id="1" parent="0" />

        <mxCell id="internet" value="Internet" style="ellipse;shape=cloud;whiteSpace=wrap;html=1;fillColor=#dae8fc;strokeColor=#6c8ebf;fontSize=14;fontStyle=1" vertex="1" parent="1">
          <mxGeometry x="450" y="40" width="200" height="100" as="geometry" />
        </mxCell>

        <mxCell id="vpc" value="VPC&lt;br&gt;10.0.0.0/16" style="rounded=1;whiteSpace=wrap;html=1;fillColor=#f5f5f5;strokeColor=#666666;fontSize=12;align=left;verticalAlign=top;fontStyle=1;dashed=1;dashPattern=8 8;" vertex="1" parent="1">
          <mxGeometry x="200" y="220" width="700" height="500" as="geometry" />
        </mxCell>

        <mxCell id="igw" value="Internet Gateway" style="rounded=0;whiteSpace=wrap;html=1;fillColor=#fff2cc;strokeColor=#d6b656;fontSize=12;fontStyle=1" vertex="1" parent="1">
          <mxGeometry x="480" y="180" width="140" height="40" as="geometry" />
        </mxCell>

        <mxCell id="arrow1" style="edgeStyle=orthogonalEdgeStyle;rounded=0;orthogonalLoop=1;jettySize=auto;html=1;strokeWidth=2;endArrow=classic;endFill=1;" edge="1" parent="1" source="internet" target="igw">
          <mxGeometry relative="1" as="geometry" />
        </mxCell>

        <mxCell id="subnet" value="Public Subnet&lt;br&gt;10.0.1.0/24&lt;br&gt;us-east-1a" style="rounded=1;whiteSpace=wrap;html=1;fillColor=#e1d5e7;strokeColor=#9673a6;fontSize=12;align=left;verticalAlign=top;fontStyle=1;dashed=1;dashPattern=4 4;" vertex="1" parent="1">
          <mxGeometry x="280" y="320" width="540" height="340" as="geometry" />
        </mxCell>

        <mxCell id="rt" value="Route Table&lt;br&gt;0.0.0.0/0 → IGW" style="rounded=0;whiteSpace=wrap;html=1;fillColor=#d5e8d4;strokeColor=#82b366;fontSize=11;" vertex="1" parent="1">
          <mxGeometry x="300" y="350" width="150" height="50" as="geometry" />
        </mxCell>

        <mxCell id="arrow2" style="edgeStyle=orthogonalEdgeStyle;rounded=0;orthogonalLoop=1;jettySize=auto;html=1;strokeWidth=2;endArrow=classic;endFill=1;" edge="1" parent="1" source="igw" target="subnet">
          <mxGeometry relative="1" as="geometry" />
        </mxCell>

        <mxCell id="sg" value="Security Group" style="rounded=1;whiteSpace=wrap;html=1;fillColor=#f8cecc;strokeColor=#b85450;fontSize=11;align=left;verticalAlign=top;fontStyle=1;dashed=1;" vertex="1" parent="1">
          <mxGeometry x="460" y="440" width="180" height="210" as="geometry" />
        </mxCell>

        <mxCell id="eip" value="Public IP" style="rounded=0;whiteSpace=wrap;html=1;fillColor=#d5e8d4;strokeColor=#82b366;fontSize=11;" vertex="1" parent="1">
          <mxGeometry x="500" y="420" width="100" height="30" as="geometry" />
        </mxCell>

        <mxCell id="ec2" value="EC2 Instance&lt;br&gt;t3.micro" style="rounded=0;whiteSpace=wrap;html=1;fillColor=#FF9900;strokeColor=#664400;fontSize=12;fontColor=#FFFFFF;fontStyle=1" vertex="1" parent="1">
          <mxGeometry x="480" y="460" width="140" height="60" as="geometry" />
        </mxCell>

        <mxCell id="app" value="Web Server&lt;br&gt;(Apache)" style="rounded=0;whiteSpace=wrap;html=1;fillColor=#1ba1e2;strokeColor=#006EAF;fontSize=11;fontColor=#FFFFFF;" vertex="1" parent="1">
          <mxGeometry x="500" y="540" width="100" height="40" as="geometry" />
        </mxCell>

        <mxCell id="db" value="Database&lt;br&gt;(Local)" style="rounded=0;whiteSpace=wrap;html=1;fillColor=#6a00ff;strokeColor=#3700CC;fontSize=11;fontColor=#FFFFFF;" vertex="1" parent="1">
          <mxGeometry x="500" y="590" width="100" height="40" as="geometry" />
        </mxCell>

        <mxCell id="sg-rules" value="Inbound:&lt;br&gt;• HTTP (80)&lt;br&gt;• HTTPS (443)&lt;br&gt;• SSH (22)" style="rounded=0;whiteSpace=wrap;html=1;fillColor=#ffffff;strokeColor=#b85450;fontSize=10;align=left;" vertex="1" parent="1">
          <mxGeometry x="670" y="460" width="120" height="80" as="geometry" />
        </mxCell>

        <mxCell id="storage" value="EBS Volume&lt;br&gt;20 GB gp3&lt;br&gt;(Encrypted)" style="rounded=0;whiteSpace=wrap;html=1;fillColor=#e1d5e7;strokeColor=#9673a6;fontSize=10;" vertex="1" parent="1">
          <mxGeometry x="670" y="560" width="120" height="60" as="geometry" />
        </mxCell>

        <mxCell id="arrow3" style="edgeStyle=orthogonalEdgeStyle;rounded=0;orthogonalLoop=1;jettySize=auto;html=1;strokeWidth=1;endArrow=classic;endFill=1;dashed=1;" edge="1" parent="1" source="ec2" target="storage">
          <mxGeometry relative="1" as="geometry" />
        </mxCell>

        <mxCell id="legend-box" value="Legend" style="rounded=0;whiteSpace=wrap;html=1;fillColor=#f5f5f5;strokeColor=#666666;fontSize=12;align=left;verticalAlign=top;fontStyle=1;" vertex="1" parent="1">
          <mxGeometry x="40" y="220" width="140" height="180" as="geometry" />
        </mxCell>

        <mxCell id="legend1" value="Network" style="rounded=0;whiteSpace=wrap;html=1;fillColor=#e1d5e7;strokeColor=#9673a6;fontSize=10;" vertex="1" parent="1">
          <mxGeometry x="50" y="250" width="60" height="20" as="geometry" />
        </mxCell>

        <mxCell id="legend2" value="Compute" style="rounded=0;whiteSpace=wrap;html=1;fillColor=#FF9900;strokeColor=#664400;fontSize=10;fontColor=#FFFFFF;" vertex="1" parent="1">
          <mxGeometry x="50" y="280" width="60" height="20" as="geometry" />
        </mxCell>

        <mxCell id="legend3" value="Security" style="rounded=0;whiteSpace=wrap;html=1;fillColor=#f8cecc;strokeColor=#b85450;fontSize=10;" vertex="1" parent="1">
          <mxGeometry x="50" y="310" width="60" height="20" as="geometry" />
        </mxCell>

        <mxCell id="legend4" value="Storage" style="rounded=0;whiteSpace=wrap;html=1;fillColor=#e1d5e7;strokeColor=#9673a6;fontSize=10;" vertex="1" parent="1">
          <mxGeometry x="50" y="340" width="60" height="20" as="geometry" />
        </mxCell>

        <mxCell id="legend5" value="Gateway" style="rounded=0;whiteSpace=wrap;html=1;fillColor=#fff2cc;strokeColor=#d6b656;fontSize=10;" vertex="1" parent="1">
          <mxGeometry x="50" y="370" width="60" height="20" as="geometry" />
        </mxCell>

        <mxCell id="title" value="AWS 1-Tier Architecture" style="text;html=1;strokeColor=none;fillColor=none;align=center;verticalAlign=middle;whiteSpace=wrap;rounded=0;fontSize=18;fontStyle=1" vertex="1" parent="1">
          <mxGeometry x="400" y="10" width="300" height="30" as="geometry" />
        </mxCell>

        <mxCell id="notes" value="Single EC2 instance hosting:&lt;br&gt;• Web Server&lt;br&gt;• Application Logic&lt;br&gt;• Database&lt;br&gt;&lt;br&gt;No high availability&lt;br&gt;Single point of failure" style="rounded=0;whiteSpace=wrap;html=1;fillColor=#fff2cc;strokeColor=#d6b656;fontSize=10;align=left;verticalAlign=top;" vertex="1" parent="1">
          <mxGeometry x="40" y="420" width="140" height="140" as="geometry" />
        </mxCell>

      </root>
    </mxGraphModel>
  </diagram>
</mxfile>
